<?xml version="1.0" encoding="UTF-8" standalone="no"?><svg xmlns="http://www.w3.org/2000/svg" xmlns:xlink="http://www.w3.org/1999/xlink" contentStyleType="text/css" height="1153px" preserveAspectRatio="none" style="width:1133px;height:1153px;background:#FFFFFF;" version="1.1" viewBox="0 0 1133 1153" width="1133px" zoomAndPan="magnify"><defs/><g><rect fill="none" height="29.0679" id="_title" style="stroke:none;stroke-width:1.0;" width="330" x="403.25" y="10"/><text fill="#000000" font-family="sans-serif" font-size="14" font-weight="bold" lengthAdjust="spacing" textLength="320" x="408.25" y="29.9659">Device creation/modification/deletion process</text><rect fill="#D3D3D3" height="239.6481" style="stroke:#000000;stroke-width:1.5;" width="890.5" x="10" y="96.1358"/><rect fill="#D3D3D3" height="748.9444" style="stroke:#000000;stroke-width:1.5;" width="708.5" x="419" y="349.784"/><rect fill="#A9A9A9" height="83.118" style="stroke:#000000;stroke-width:1.5;" width="368" x="749.5" y="976.9043"/><line style="stroke:#181818;stroke-width:0.5;stroke-dasharray:5.0,5.0;" x1="93" x2="93" y1="79.1358" y2="1115.7284"/><line style="stroke:#181818;stroke-width:0.5;stroke-dasharray:5.0,5.0;" x1="273" x2="273" y1="79.1358" y2="1115.7284"/><line style="stroke:#181818;stroke-width:0.5;stroke-dasharray:5.0,5.0;" x1="459" x2="459" y1="79.1358" y2="1115.7284"/><line style="stroke:#181818;stroke-width:0.5;stroke-dasharray:5.0,5.0;" x1="824.5" x2="824.5" y1="79.1358" y2="1115.7284"/><line style="stroke:#181818;stroke-width:0.5;stroke-dasharray:5.0,5.0;" x1="1069.5" x2="1069.5" y1="79.1358" y2="1115.7284"/><rect fill="#E2E2F0" height="33.0679" rx="2.5" ry="2.5" style="stroke:#181818;stroke-width:0.5;" width="42" x="72" y="45.0679"/><text fill="#000000" font-family="sans-serif" font-size="14" lengthAdjust="spacing" textLength="28" x="79" y="67.0339">HMI</text><rect fill="#E2E2F0" height="33.0679" rx="2.5" ry="2.5" style="stroke:#181818;stroke-width:0.5;" width="42" x="72" y="1114.7284"/><text fill="#000000" font-family="sans-serif" font-size="14" lengthAdjust="spacing" textLength="28" x="79" y="1136.6943">HMI</text><rect fill="#E2E2F0" height="33.0679" rx="2.5" ry="2.5" style="stroke:#181818;stroke-width:0.5;" width="102" x="222" y="45.0679"/><text fill="#000000" font-family="sans-serif" font-size="14" lengthAdjust="spacing" textLength="88" x="229" y="67.0339">MQTT Broker</text><rect fill="#E2E2F0" height="33.0679" rx="2.5" ry="2.5" style="stroke:#181818;stroke-width:0.5;" width="102" x="222" y="1114.7284"/><text fill="#000000" font-family="sans-serif" font-size="14" lengthAdjust="spacing" textLength="88" x="229" y="1136.6943">MQTT Broker</text><rect fill="#E2E2F0" height="33.0679" rx="2.5" ry="2.5" style="stroke:#181818;stroke-width:0.5;" width="60" x="429" y="45.0679"/><text fill="#000000" font-family="sans-serif" font-size="14" lengthAdjust="spacing" textLength="46" x="436" y="67.0339">DB-API</text><rect fill="#E2E2F0" height="33.0679" rx="2.5" ry="2.5" style="stroke:#181818;stroke-width:0.5;" width="60" x="429" y="1114.7284"/><text fill="#000000" font-family="sans-serif" font-size="14" lengthAdjust="spacing" textLength="46" x="436" y="1136.6943">DB-API</text><rect fill="#E2E2F0" height="33.0679" rx="2.5" ry="2.5" style="stroke:#181818;stroke-width:0.5;" width="131" x="759.5" y="45.0679"/><text fill="#000000" font-family="sans-serif" font-size="14" lengthAdjust="spacing" textLength="117" x="766.5" y="67.0339">CSL-Concentrator</text><rect fill="#E2E2F0" height="33.0679" rx="2.5" ry="2.5" style="stroke:#181818;stroke-width:0.5;" width="131" x="759.5" y="1114.7284"/><text fill="#000000" font-family="sans-serif" font-size="14" lengthAdjust="spacing" textLength="117" x="766.5" y="1136.6943">CSL-Concentrator</text><rect fill="#E2E2F0" height="33.0679" rx="2.5" ry="2.5" style="stroke:#181818;stroke-width:0.5;" width="75" x="1032.5" y="45.0679"/><text fill="#000000" font-family="sans-serif" font-size="14" lengthAdjust="spacing" textLength="61" x="1039.5" y="67.0339">CSL-Scan</text><rect fill="#E2E2F0" height="33.0679" rx="2.5" ry="2.5" style="stroke:#181818;stroke-width:0.5;" width="75" x="1032.5" y="1114.7284"/><text fill="#000000" font-family="sans-serif" font-size="14" lengthAdjust="spacing" textLength="61" x="1039.5" y="1136.6943">CSL-Scan</text><path d="M10,96.1358 L277,96.1358 L277,105.8419 L267,115.8419 L10,115.8419 L10,96.1358 " fill="#EEEEEE" style="stroke:#000000;stroke-width:1.5;"/><rect fill="none" height="239.6481" style="stroke:#000000;stroke-width:1.5;" width="890.5" x="10" y="96.1358"/><text fill="#000000" font-family="sans-serif" font-size="13" font-weight="bold" lengthAdjust="spacing" textLength="222" x="25" y="111.0328">Device handling on Web interface</text><polygon fill="#181818" points="447,135.5479,457,139.5479,447,143.5479,451,139.5479" style="stroke:#181818;stroke-width:1.0;"/><line style="stroke:#181818;stroke-width:1.0;" x1="93" x2="453" y1="139.5479" y2="139.5479"/><text fill="#000000" font-family="sans-serif" font-size="13" font-weight="bold" lengthAdjust="spacing" textLength="18" x="180.5" y="133.7389">1.1</text><text fill="#000000" font-family="sans-serif" font-size="13" lengthAdjust="spacing" textLength="169" x="202.5" y="133.7389">Create/modify/delete device</text><path d="M414,152.5479 L414,197.5479 L504,197.5479 L504,162.5479 L494,152.5479 L414,152.5479 " fill="#FEFFDD" style="stroke:#181818;stroke-width:0.5;"/><path d="M494,152.5479 L494,162.5479 L504,162.5479 L494,152.5479 " fill="#FEFFDD" style="stroke:#181818;stroke-width:0.5;"/><text fill="#000000" font-family="sans-serif" font-size="13" lengthAdjust="spacing" textLength="69" x="420" y="171.4449">Save device</text><text fill="#000000" font-family="sans-serif" font-size="13" lengthAdjust="spacing" textLength="69" x="420" y="189.1509">in database</text><polygon fill="#181818" points="284,222.6659,274,226.6659,284,230.6659,280,226.6659" style="stroke:#181818;stroke-width:1.0;"/><line style="stroke:#181818;stroke-width:1.0;" x1="278" x2="458" y1="226.6659" y2="226.6659"/><text fill="#000000" font-family="sans-serif" font-size="13" font-weight="bold" lengthAdjust="spacing" textLength="18" x="285" y="220.8569">1.2</text><text fill="#000000" font-family="sans-serif" font-size="13" lengthAdjust="spacing" textLength="140" x="307" y="220.8569">Send MQTT notification</text><polygon fill="#181818" points="104,254.3719,94,258.3719,104,262.3719,100,258.3719" style="stroke:#181818;stroke-width:1.0;"/><line style="stroke:#181818;stroke-width:1.0;" x1="98" x2="272" y1="258.3719" y2="258.3719"/><text fill="#000000" font-family="sans-serif" font-size="13" font-weight="bold" lengthAdjust="spacing" textLength="18" x="105" y="252.5629">1.3</text><text fill="#000000" font-family="sans-serif" font-size="13" lengthAdjust="spacing" textLength="134" x="127" y="252.5629">Propagate notification</text><path d="M20,271.3719 L20,298.3719 L166,298.3719 L166,281.3719 L156,271.3719 L20,271.3719 " fill="#FEFFDD" style="stroke:#181818;stroke-width:0.5;"/><path d="M156,271.3719 L156,281.3719 L166,281.3719 L156,271.3719 " fill="#FEFFDD" style="stroke:#181818;stroke-width:0.5;"/><text fill="#000000" font-family="sans-serif" font-size="13" lengthAdjust="spacing" textLength="125" x="26" y="290.2689">Update devices table</text><polygon fill="#181818" points="813,323.784,823,327.784,813,331.784,817,327.784" style="stroke:#181818;stroke-width:1.0;"/><line style="stroke:#181818;stroke-width:1.0;" x1="273" x2="819" y1="327.784" y2="327.784"/><text fill="#000000" font-family="sans-serif" font-size="13" font-weight="bold" lengthAdjust="spacing" textLength="18" x="471" y="321.975">1.4</text><text fill="#000000" font-family="sans-serif" font-size="13" lengthAdjust="spacing" textLength="134" x="493" y="321.975">Propagate notification</text><path d="M419,349.784 L664,349.784 L664,359.49 L654,369.49 L419,369.49 L419,349.784 " fill="#EEEEEE" style="stroke:#000000;stroke-width:1.5;"/><rect fill="none" height="748.9444" style="stroke:#000000;stroke-width:1.5;" width="708.5" x="419" y="349.784"/><text fill="#000000" font-family="sans-serif" font-size="13" font-weight="bold" lengthAdjust="spacing" textLength="200" x="434" y="364.681">Synchronisation with CSL-Scan</text><polygon fill="#181818" points="1058,389.196,1068,393.196,1058,397.196,1062,393.196" style="stroke:#181818;stroke-width:1.0;"/><line style="stroke:#181818;stroke-width:1.0;" x1="825" x2="1064" y1="393.196" y2="393.196"/><text fill="#000000" font-family="sans-serif" font-size="13" font-weight="bold" lengthAdjust="spacing" textLength="18" x="841.5" y="387.387">2.1</text><text fill="#000000" font-family="sans-serif" font-size="13" lengthAdjust="spacing" textLength="190" x="863.5" y="387.387">Request last device update date</text><polygon fill="#181818" points="836,420.902,826,424.902,836,428.902,832,424.902" style="stroke:#181818;stroke-width:1.0;"/><line style="stroke:#181818;stroke-width:1.0;" x1="830" x2="1069" y1="424.902" y2="424.902"/><text fill="#000000" font-family="sans-serif" font-size="13" font-weight="bold" lengthAdjust="spacing" textLength="18" x="851" y="419.093">2.2</text><text fill="#000000" font-family="sans-serif" font-size="13" lengthAdjust="spacing" textLength="171" x="873" y="419.093">Send last device update date</text><polygon fill="#181818" points="470,452.608,460,456.608,470,460.608,466,456.608" style="stroke:#181818;stroke-width:1.0;"/><line style="stroke:#181818;stroke-width:1.0;" x1="464" x2="824" y1="456.608" y2="456.608"/><text fill="#000000" font-family="sans-serif" font-size="13" font-weight="bold" lengthAdjust="spacing" textLength="18" x="504" y="450.799">2.3</text><text fill="#000000" font-family="sans-serif" font-size="13" lengthAdjust="spacing" textLength="254" x="526" y="450.799">Request devices changed since last update</text><polygon fill="#181818" points="813,484.314,823,488.314,813,492.314,817,488.314" style="stroke:#181818;stroke-width:1.0;"/><line style="stroke:#181818;stroke-width:1.0;" x1="459" x2="819" y1="488.314" y2="488.314"/><text fill="#000000" font-family="sans-serif" font-size="13" font-weight="bold" lengthAdjust="spacing" textLength="18" x="514.5" y="482.505">2.4</text><text fill="#000000" font-family="sans-serif" font-size="13" lengthAdjust="spacing" textLength="233" x="536.5" y="482.505">Send devices changes since last update</text><polygon fill="#181818" points="470,516.0201,460,520.0201,470,524.0201,466,520.0201" style="stroke:#181818;stroke-width:1.0;"/><line style="stroke:#181818;stroke-width:1.0;" x1="464" x2="824" y1="520.0201" y2="520.0201"/><text fill="#000000" font-family="sans-serif" font-size="13" font-weight="bold" lengthAdjust="spacing" textLength="18" x="489.5" y="514.2111">2.5</text><text fill="#000000" font-family="sans-serif" font-size="13" lengthAdjust="spacing" textLength="283" x="511.5" y="514.2111">Request connections changed since last update</text><polygon fill="#181818" points="813,547.7261,823,551.7261,813,555.7261,817,551.7261" style="stroke:#181818;stroke-width:1.0;"/><line style="stroke:#181818;stroke-width:1.0;" x1="459" x2="819" y1="551.7261" y2="551.7261"/><text fill="#000000" font-family="sans-serif" font-size="13" font-weight="bold" lengthAdjust="spacing" textLength="18" x="500" y="545.9171">2.6</text><text fill="#000000" font-family="sans-serif" font-size="13" lengthAdjust="spacing" textLength="262" x="522" y="545.9171">Send connections changes since last update</text><polygon fill="#181818" points="470,579.4321,460,583.4321,470,587.4321,466,583.4321" style="stroke:#181818;stroke-width:1.0;"/><line style="stroke:#181818;stroke-width:1.0;" x1="464" x2="824" y1="583.4321" y2="583.4321"/><text fill="#000000" font-family="sans-serif" font-size="13" font-weight="bold" lengthAdjust="spacing" textLength="18" x="545" y="577.6231">2.7</text><text fill="#000000" font-family="sans-serif" font-size="13" lengthAdjust="spacing" textLength="172" x="567" y="577.6231">Request discovery_protocols</text><polygon fill="#181818" points="813,611.1381,823,615.1381,813,619.1381,817,615.1381" style="stroke:#181818;stroke-width:1.0;"/><line style="stroke:#181818;stroke-width:1.0;" x1="459" x2="819" y1="615.1381" y2="615.1381"/><text fill="#000000" font-family="sans-serif" font-size="13" font-weight="bold" lengthAdjust="spacing" textLength="18" x="554.5" y="609.3291">2.8</text><text fill="#000000" font-family="sans-serif" font-size="13" lengthAdjust="spacing" textLength="153" x="576.5" y="609.3291">Send discovery_protocols</text><polygon fill="#181818" points="1058,642.8441,1068,646.8441,1058,650.8441,1062,646.8441" style="stroke:#181818;stroke-width:1.0;"/><line style="stroke:#181818;stroke-width:1.0;" x1="825" x2="1064" y1="646.8441" y2="646.8441"/><text fill="#000000" font-family="sans-serif" font-size="13" font-weight="bold" lengthAdjust="spacing" textLength="18" x="838.5" y="641.0351">2.9</text><text fill="#000000" font-family="sans-serif" font-size="13" lengthAdjust="spacing" textLength="196" x="860.5" y="641.0351">Request last device deletion date</text><polygon fill="#181818" points="836,674.5501,826,678.5501,836,682.5501,832,678.5501" style="stroke:#181818;stroke-width:1.0;"/><line style="stroke:#181818;stroke-width:1.0;" x1="830" x2="1069" y1="678.5501" y2="678.5501"/><text fill="#000000" font-family="sans-serif" font-size="13" font-weight="bold" lengthAdjust="spacing" textLength="25" x="844.5" y="672.7411">2.10</text><text fill="#000000" font-family="sans-serif" font-size="13" lengthAdjust="spacing" textLength="177" x="873.5" y="672.7411">Send last device deletion date</text><polygon fill="#181818" points="470,706.2562,460,710.2562,470,714.2562,466,710.2562" style="stroke:#181818;stroke-width:1.0;"/><line style="stroke:#181818;stroke-width:1.0;" x1="464" x2="824" y1="710.2562" y2="710.2562"/><text fill="#000000" font-family="sans-serif" font-size="13" font-weight="bold" lengthAdjust="spacing" textLength="25" x="471" y="704.4472">2.11</text><text fill="#000000" font-family="sans-serif" font-size="13" lengthAdjust="spacing" textLength="313" x="500" y="704.4472">Request deleted device uuids since last deletion date</text><polygon fill="#181818" points="813,737.9622,823,741.9622,813,745.9622,817,741.9622" style="stroke:#181818;stroke-width:1.0;"/><line style="stroke:#181818;stroke-width:1.0;" x1="459" x2="819" y1="741.9622" y2="741.9622"/><text fill="#000000" font-family="sans-serif" font-size="13" font-weight="bold" lengthAdjust="spacing" textLength="25" x="476" y="736.1532">2.12</text><text fill="#000000" font-family="sans-serif" font-size="13" lengthAdjust="spacing" textLength="303" x="505" y="736.1532">Send deleted devices' uuids since last deletion date</text><path d="M700,754.9622 L700,799.9622 L949,799.9622 L949,764.9622 L939,754.9622 L700,754.9622 " fill="#FEFFDD" style="stroke:#181818;stroke-width:0.5;"/><path d="M939,754.9622 L939,764.9622 L949,764.9622 L939,754.9622 " fill="#FEFFDD" style="stroke:#181818;stroke-width:0.5;"/><text fill="#000000" font-family="sans-serif" font-size="13" lengthAdjust="spacing" textLength="228" x="706" y="773.8592">Check connections in changed devices</text><text fill="#000000" font-family="sans-serif" font-size="13" lengthAdjust="spacing" textLength="215" x="706" y="791.5652">and devices in changed connections</text><polygon fill="#181818" points="470,825.0802,460,829.0802,470,833.0802,466,829.0802" style="stroke:#181818;stroke-width:1.0;"/><line style="stroke:#181818;stroke-width:1.0;" x1="464" x2="824" y1="829.0802" y2="829.0802"/><text fill="#000000" font-family="sans-serif" font-size="13" font-weight="bold" lengthAdjust="spacing" textLength="25" x="531" y="823.2712">2.13</text><text fill="#000000" font-family="sans-serif" font-size="13" lengthAdjust="spacing" textLength="193" x="560" y="823.2712">Request missing devices by uuid</text><polygon fill="#181818" points="813,856.7862,823,860.7862,813,864.7862,817,860.7862" style="stroke:#181818;stroke-width:1.0;"/><line style="stroke:#181818;stroke-width:1.0;" x1="459" x2="819" y1="860.7862" y2="860.7862"/><text fill="#000000" font-family="sans-serif" font-size="13" font-weight="bold" lengthAdjust="spacing" textLength="25" x="564.5" y="854.9772">2.14</text><text fill="#000000" font-family="sans-serif" font-size="13" lengthAdjust="spacing" textLength="126" x="593.5" y="854.9772">Send missing devices</text><polygon fill="#181818" points="470,888.4923,460,892.4923,470,896.4923,466,892.4923" style="stroke:#181818;stroke-width:1.0;"/><line style="stroke:#181818;stroke-width:1.0;" x1="464" x2="824" y1="892.4923" y2="892.4923"/><text fill="#000000" font-family="sans-serif" font-size="13" font-weight="bold" lengthAdjust="spacing" textLength="25" x="516.5" y="886.6833">2.15</text><text fill="#000000" font-family="sans-serif" font-size="13" lengthAdjust="spacing" textLength="222" x="545.5" y="886.6833">Request missing connections by uuid</text><polygon fill="#181818" points="813,920.1983,823,924.1983,813,928.1983,817,924.1983" style="stroke:#181818;stroke-width:1.0;"/><line style="stroke:#181818;stroke-width:1.0;" x1="459" x2="819" y1="924.1983" y2="924.1983"/><text fill="#000000" font-family="sans-serif" font-size="13" font-weight="bold" lengthAdjust="spacing" textLength="25" x="550" y="918.3893">2.16</text><text fill="#000000" font-family="sans-serif" font-size="13" lengthAdjust="spacing" textLength="155" x="579" y="918.3893">Send missing connections</text><path d="M738,937.1983 L738,964.1983 L912,964.1983 L912,947.1983 L902,937.1983 L738,937.1983 " fill="#FEFFDD" style="stroke:#181818;stroke-width:0.5;"/><path d="M902,937.1983 L902,947.1983 L912,947.1983 L902,937.1983 " fill="#FEFFDD" style="stroke:#181818;stroke-width:0.5;"/><text fill="#000000" font-family="sans-serif" font-size="13" lengthAdjust="spacing" textLength="153" x="744" y="956.0953">Build entities for CSL Scan</text><path d="M749.5,976.9043 L822.5,976.9043 L822.5,986.6103 L812.5,996.6103 L749.5,996.6103 L749.5,976.9043 " fill="#EEEEEE" style="stroke:#000000;stroke-width:1.5;"/><rect fill="none" height="83.118" style="stroke:#000000;stroke-width:1.5;" width="368" x="749.5" y="976.9043"/><text fill="#000000" font-family="sans-serif" font-size="13" font-weight="bold" lengthAdjust="spacing" textLength="28" x="764.5" y="991.8013">loop</text><text fill="#000000" font-family="sans-serif" font-size="11" font-weight="bold" lengthAdjust="spacing" textLength="110" x="837.5" y="990.6632">[each device entity]</text><polygon fill="#181818" points="1058,1016.3163,1068,1020.3163,1058,1024.3163,1062,1020.3163" style="stroke:#181818;stroke-width:1.0;"/><line style="stroke:#181818;stroke-width:1.0;" x1="825" x2="1064" y1="1020.3163" y2="1020.3163"/><text fill="#000000" font-family="sans-serif" font-size="13" font-weight="bold" lengthAdjust="spacing" textLength="25" x="874" y="1014.5073">2.17</text><text fill="#000000" font-family="sans-serif" font-size="13" lengthAdjust="spacing" textLength="118" x="903" y="1014.5073">Send device entities</text><polygon fill="#181818" points="1058,1048.0223,1068,1052.0223,1058,1056.0223,1062,1052.0223" style="stroke:#181818;stroke-width:1.0;"/><line style="stroke:#181818;stroke-width:1.0;" x1="825" x2="1064" y1="1052.0223" y2="1052.0223"/><text fill="#000000" font-family="sans-serif" font-size="13" font-weight="bold" lengthAdjust="spacing" textLength="25" x="838" y="1046.2133">2.18</text><text fill="#000000" font-family="sans-serif" font-size="13" lengthAdjust="spacing" textLength="190" x="867" y="1046.2133">Delete entities deleted in DB API</text><polygon fill="#181818" points="1058,1086.7284,1068,1090.7284,1058,1094.7284,1062,1090.7284" style="stroke:#181818;stroke-width:1.0;"/><line style="stroke:#181818;stroke-width:1.0;" x1="825" x2="1064" y1="1090.7284" y2="1090.7284"/><text fill="#000000" font-family="sans-serif" font-size="13" font-weight="bold" lengthAdjust="spacing" textLength="25" x="837" y="1084.9194">2.19</text><text fill="#000000" font-family="sans-serif" font-size="13" lengthAdjust="spacing" textLength="192" x="866" y="1084.9194">Update last device deletion date</text><!--MD5=[63f13fe6de6f7f10a318724f34c8927f]
@startuml devices_sync

skinparam SequenceMessageAlign center
autonumber 1.1

title: Device creation/modification/deletion process

participant "HMI" as hmi
participant "MQTT Broker" as mqtt
participant "DB-API" as dbapi
participant "CSL-Concentrator" as client
participant "CSL-Scan" as scan

group #LightGray Device handling on Web interface
    hmi -> dbapi: Create/modify/delete device
    note over dbapi: Save device\nin database
    dbapi -> mqtt : Send MQTT notification
    mqtt -> hmi: Propagate notification
    note over hmi: Update devices table
    mqtt -> client: Propagate notification
end

group #LightGray Synchronisation with CSL-Scan
    autonumber inc A
    client -> scan: Request last device update date
    scan -> client: Send last device update date
    client -> dbapi: Request devices changed since last update
    dbapi -> client: Send devices changes since last update
    client -> dbapi: Request connections changed since last update
    dbapi -> client: Send connections changes since last update
    client -> dbapi: Request discovery_protocols
    dbapi -> client: Send discovery_protocols
    client -> scan: Request last device deletion date
    scan -> client: Send last device deletion date
    client -> dbapi: Request deleted device uuids since last deletion date
    dbapi -> client: Send deleted devices' uuids since last deletion date
    note over client: Check connections in changed devices\nand devices in changed connections
    client -> dbapi: Request missing devices by uuid
    dbapi -> client: Send missing devices
    client -> dbapi: Request missing connections by uuid
    dbapi -> client: Send missing connections
    note over client: Build entities for CSL Scan
    loop #DarkGray each device entity
        client -> scan: Send device entities
        client -> scan: Delete entities deleted in DB API
    end
    client -> scan: Update last device deletion date
end

@enduml

PlantUML version 1.2022.7(Mon Aug 22 19:01:30 CEST 2022)
(GPL source distribution)
Java Runtime: OpenJDK Runtime Environment
JVM: OpenJDK 64-Bit Server VM
Default Encoding: UTF-8
Language: fr
Country: FR
--></g></svg>